<svg id="Layer_2" data-name="Layer 2" xmlns="http://www.w3.org/2000/svg" xmlns:xlink="http://www.w3.org/1999/xlink" viewBox="0 0 191.43 199.99"><defs><style>.cls-1{fill:url(#linear-gradient);}.cls-2{fill:url(#linear-gradient-2);}.cls-3{fill:url(#linear-gradient-3);}.cls-4{fill:url(#linear-gradient-4);}.cls-5{fill:url(#linear-gradient-5);}</style><linearGradient id="linear-gradient" x1="168.71" y1="102.13" x2="191.43" y2="102.13" gradientUnits="userSpaceOnUse"><stop offset="0" stop-color="#f2f2f2"/><stop offset="1" stop-color="#999"/></linearGradient><linearGradient id="linear-gradient-2" x1="0" y1="102.28" x2="22.71" y2="102.28" xlink:href="#linear-gradient"/><linearGradient id="linear-gradient-3" x1="384.57" y1="301.57" x2="501.14" y2="301.57" xlink:href="#linear-gradient"/><linearGradient id="linear-gradient-4" x1="74.49" y1="20.72" x2="115.94" y2="20.72" xlink:href="#linear-gradient"/><linearGradient id="linear-gradient-5" x1="74.49" y1="178.98" x2="115.94" y2="178.98" xlink:href="#linear-gradient"/></defs><rect class="cls-1" x="168.71" y="4.42" width="22.71" height="195.43" rx="10.82"/><rect class="cls-2" y="4.56" width="22.71" height="195.43" rx="10.82"/><path class="cls-3" d="M489.86,231.29a11.27,11.27,0,0,0-10.35,6.78h0l-36.26,61.5-37.5-63v0a11.71,11.71,0,0,0-.94-1.46,9.39,9.39,0,0,0-1-1.12,11.29,11.29,0,0,0-19.27,8V360.57a11.29,11.29,0,1,0,22.57,0V285.86l26.22,42.42s0,0,0,0l.64,1a11.28,11.28,0,0,0,18.92-.59l25.64-42v74.43a11.29,11.29,0,1,0,22.57,0V242.57a11.27,11.27,0,0,0-11.28-11.28Z" transform="translate(-347.29 -199.58)"/><circle class="cls-4" cx="95.21" cy="20.72" r="20.72"/><circle class="cls-5" cx="95.21" cy="178.98" r="20.72"/></svg>