<svg id="Layer_2" data-name="Layer 2" xmlns="http://www.w3.org/2000/svg" viewBox="0 0 191.43 199.99"><defs><style>.cls-1{fill:#1a1a1a;}</style></defs><rect class="cls-1" x="168.71" y="4.42" width="22.71" height="195.43" rx="10.82"/><rect class="cls-1" y="4.56" width="22.71" height="195.43" rx="10.82"/><path class="cls-1" d="M489.86,231.29a11.27,11.27,0,0,0-10.35,6.78h0l-36.26,61.5-37.5-63v0a11.71,11.71,0,0,0-.94-1.46,9.39,9.39,0,0,0-1-1.12,11.29,11.29,0,0,0-19.27,8V360.57a11.29,11.29,0,1,0,22.57,0V285.86l26.22,42.42s0,0,0,0l.64,1a11.28,11.28,0,0,0,18.92-.59l25.64-42v74.43a11.29,11.29,0,1,0,22.57,0V242.57a11.27,11.27,0,0,0-11.28-11.28Z" transform="translate(-347.29 -199.58)"/><circle class="cls-1" cx="95.21" cy="20.72" r="20.72"/><circle class="cls-1" cx="95.21" cy="178.98" r="20.72"/></svg>